<svg width="262" height="47" viewBox="0 0 262 47" fill="none" xmlns="http://www.w3.org/2000/svg">
<g clip-path="url(#clip0_10059_170)">
<path d="M174.444 27.9078L169.34 27.9215L162.149 19.155L157.871 23.3509L157.846 27.9297L153.886 27.9352L153.88 7.14718L157.844 7.12256L157.885 18.318L168.869 7.14718L174.025 7.14991L164.851 16.4854L174.444 27.9078Z" fill="white"/>
<path d="M214.16 21.3157L214.155 27.9132L210.218 27.9433V17.7708L221.895 17.7025C223.928 17.6915 225.303 15.8917 225.284 14.1959C225.262 12.396 223.887 10.7467 221.898 10.7412L212.13 10.7111L210.145 7.11426L222.598 7.14982C226.447 7.68593 229.174 10.4759 229.152 14.3053C229.136 17.314 227.278 19.8934 224.215 20.7933L229.795 27.894L224.962 27.9433L219.882 21.3239L214.165 21.3103L214.16 21.3157Z" fill="white"/>
<path d="M203.41 7.21282L193.955 19.1933L193.927 27.9188L190.013 27.9352L189.994 19.2343L180.628 7.16359L185.385 7.12256L191.969 15.6566L198.665 7.13076L203.41 7.21282Z" fill="white"/>
<path d="M145.319 24.3082L145.387 27.9297L128.445 27.9351L128.451 8.55308L132.398 7.02954L132.408 24.3191L145.319 24.3082Z" fill="white"/>
<path d="M108.77 14.9318L101.809 27.8969L97.3862 27.8997L108.787 6.89014L120.19 27.9134L115.723 27.927L108.77 14.9318Z" fill="white"/>
<path d="M93.0864 7.16637L97.4902 7.14449L86.3221 28.165L75.2306 7.16364L79.6344 7.11987L86.3275 20.003L93.0864 7.16637Z" fill="white"/>
<path d="M249.825 14.9209L242.798 27.938L238.422 27.8915L249.833 6.86279L261.256 27.9052L256.816 27.9188L249.825 14.9209Z" fill="white"/>
<path d="M251.844 27.9298L249.842 27.938L247.834 27.9298L249.842 24.3931L251.844 27.9298Z" fill="#FFB031"/>
<path d="M110.606 27.8067L108.601 27.8149L106.593 27.8067L108.601 24.27L110.606 27.8067Z" fill="#FFB031"/>
<path d="M110.182 38.5315H110.904L113.185 44.7077H112.479L111.943 43.1979H109.151L108.606 44.7077H107.901L110.182 38.5315ZM111.711 42.5769L110.546 39.311L109.372 42.5769H111.714H111.711Z" fill="white"/>
<path d="M114.796 38.5315H116.205L117.252 42.9325L118.36 38.5315H119.703L120.811 42.9325L121.859 38.5315H123.267L121.632 44.7077H120.122L119.03 40.5638L117.939 44.7077H116.429L114.793 38.5315H114.796Z" fill="white"/>
<path d="M125.234 38.5315H126.963L129.077 44.7077H127.66L127.242 43.4468H124.952L124.534 44.7077H123.125L125.239 38.5315H125.234ZM126.878 42.328L126.098 39.9484L125.311 42.328H126.881H126.878Z" fill="white"/>
<path d="M129.26 43.6711L132.105 39.6502H129.43V38.5315H133.752V39.5682L130.915 43.589H133.834V44.7077H129.263V43.6711H129.26Z" fill="white"/>
<path d="M134.476 38.5315H136.514C138.544 38.5315 139.846 39.8253 139.846 41.6142C139.846 43.403 138.538 44.705 136.514 44.705H134.476V38.5288V38.5315ZM138.547 41.6169C138.547 40.4161 137.767 39.653 136.55 39.653H135.778V43.589H136.55C137.767 43.589 138.547 42.8177 138.547 41.6169Z" fill="white"/>
<path d="M142.078 38.5315H143.806L145.921 44.7077H144.504L144.085 43.4468H141.796L141.378 44.7077H139.969L142.083 38.5315H142.078ZM143.722 42.328L142.942 39.9484L142.154 42.328H143.724H143.722Z" fill="white"/>
<path d="M146.566 38.5315H147.565L150.385 42.2022V38.5315H151.684V44.7077H150.677L147.868 40.9522V44.7077H146.569V38.5315H146.566Z" fill="white"/>
<path d="M154.217 41.6252C154.217 39.7761 155.491 38.4331 157.253 38.4331C158.519 38.4331 159.441 39.2044 159.753 39.9758L159.148 40.2657C158.839 39.5108 158.167 39.0567 157.253 39.0567C155.869 39.0567 154.887 40.0934 154.887 41.6252C154.887 43.1569 155.869 44.1854 157.253 44.1854C158.478 44.1854 159.417 43.332 159.417 42.1367V42.0956H157.253V41.5157H160.089V42.03C160.089 43.6465 158.839 44.8063 157.253 44.8063C155.491 44.8063 154.217 43.4715 154.217 41.6224V41.6252Z" fill="white"/>
<path d="M161.29 38.5315H163.437C164.663 38.5315 165.483 39.2946 165.483 40.4216C165.483 41.2996 164.988 41.9478 164.192 42.1967L165.653 44.7077H164.865L163.489 42.3034H161.963V44.7077H161.293V38.5315H161.29ZM164.813 40.4134C164.813 39.6338 164.277 39.1524 163.47 39.1524H161.96V41.6798H163.47C164.274 41.6798 164.813 41.1984 164.813 40.4106V40.4134Z" fill="white"/>
<path d="M166.482 41.6169C166.482 39.7597 167.874 38.4331 169.611 38.4331C171.348 38.4331 172.74 39.7679 172.74 41.6169C172.74 43.466 171.348 44.809 169.611 44.809C167.874 44.809 166.482 43.4824 166.482 41.6169ZM172.07 41.6169C172.07 40.2165 171.063 39.0567 169.611 39.0567C168.158 39.0567 167.152 40.2165 167.152 41.6169C167.152 43.0174 168.167 44.1854 169.611 44.1854C171.055 44.1854 172.07 43.0338 172.07 41.6169Z" fill="white"/>
<path d="M174.006 42.6948V38.5344H174.677V42.6948C174.677 43.5892 175.306 44.1882 176.227 44.1882C177.149 44.1882 177.778 43.5919 177.778 42.6948V38.5344H178.449V42.6948C178.449 43.9229 177.56 44.8091 176.225 44.8091C174.89 44.8091 174.001 43.9229 174.001 42.6948H174.006Z" fill="white"/>
<path d="M179.904 38.5315H182.051C183.276 38.5315 184.097 39.2946 184.097 40.4216C184.097 41.5485 183.282 42.3034 182.051 42.3034H180.574V44.7077H179.904V38.5315ZM183.429 40.4134C183.429 39.6338 182.893 39.1524 182.086 39.1524H180.577V41.6798H182.086C182.891 41.6798 183.429 41.1984 183.429 40.4106V40.4134Z" fill="white"/>
<path d="M186.539 41.6252C186.539 39.7761 187.814 38.4331 189.576 38.4331C190.842 38.4331 191.764 39.2044 192.076 39.9758L191.446 40.2493C191.126 39.5272 190.465 39.0567 189.576 39.0567C188.192 39.0567 187.21 40.0934 187.21 41.6252C187.21 43.1569 188.192 44.1854 189.576 44.1854C190.465 44.1854 191.126 43.7204 191.446 43.001L192.076 43.2745C191.767 44.0459 190.842 44.809 189.576 44.809C187.814 44.809 186.539 43.4742 186.539 41.6252Z" fill="white"/>
<path d="M193.093 41.6169C193.093 39.7597 194.485 38.4331 196.222 38.4331C197.959 38.4331 199.351 39.7679 199.351 41.6169C199.351 43.466 197.959 44.809 196.222 44.809C194.485 44.809 193.093 43.4824 193.093 41.6169ZM198.679 41.6169C198.679 40.2165 197.672 39.0567 196.22 39.0567C194.767 39.0567 193.761 40.2165 193.761 41.6169C193.761 43.0174 194.775 44.1854 196.22 44.1854C197.664 44.1854 198.679 43.0338 198.679 41.6169Z" fill="white"/>
<path d="M200.642 38.5315H201.231L203.411 41.6661L205.591 38.5315H206.179V44.7077H205.508V39.8253L203.427 42.8012H203.394L201.313 39.8089V44.7077H200.642V38.5315Z" fill="white"/>
<path d="M207.656 38.5315H209.803C211.028 38.5315 211.849 39.2946 211.849 40.4216C211.849 41.5485 211.034 42.3034 209.803 42.3034H208.326V44.7077H207.656V38.5315ZM211.179 40.4134C211.179 39.6338 210.643 39.1524 209.836 39.1524H208.326V41.6798H209.836C210.64 41.6798 211.179 41.1984 211.179 40.4106V40.4134Z" fill="white"/>
<path d="M214.182 38.5315H214.904L217.185 44.7077H216.48L215.943 43.1979H213.151L212.606 44.7077H211.901L214.182 38.5315ZM215.708 42.5769L214.543 39.311L213.37 42.5769H215.711H215.708Z" fill="white"/>
<path d="M218.017 38.5315H218.605L222.043 43.4057V38.5315H222.713V44.7077H222.125L218.687 39.8007V44.7077H218.017V38.5315Z" fill="white"/>
<path d="M225.736 41.8384L223.547 38.5315H224.294L226.072 41.2093L227.842 38.5315H228.589L226.409 41.8384V44.7077H225.738V41.8384H225.736Z" fill="white"/>
<path d="M261.259 41.1438H230.284V42.1641H261.259V41.1438Z" fill="#FFB031"/>
<path d="M106.205 41.1438H75.2306V42.1641H106.205V41.1438Z" fill="#FFB031"/>
<path d="M52.1368 9.75952L33.9583 47.0001H22.2896L4.11108 9.75952L15.539 16.9095L28.1239 42.9136L40.7061 16.9095L52.1368 9.75952Z" fill="white"/>
<path d="M0 0L0.0902636 0.0464994L26.4445 13.3782L26.8083 35.4955L18.0254 16.1654L7.842 9.19048L0 0Z" fill="#FFB031"/>
<path d="M56.2479 0L56.1549 0.0464994L29.8034 13.3782L29.4396 35.4955L38.2225 16.1654L48.4059 9.19048L56.2479 0Z" fill="#FFB031"/>
</g>
<defs>
<clipPath id="clip0_10059_170">
<rect width="261.256" height="47" fill="white"/>
</clipPath>
</defs>
</svg>
